<mxfile host="65bd71144e">
    <diagram id="HRNYZb_d_-AxjUrSjqQ5" name="Page-1">
        <mxGraphModel dx="1066" dy="636" grid="1" gridSize="10" guides="1" tooltips="1" connect="1" arrows="1" fold="1" page="1" pageScale="1" pageWidth="850" pageHeight="1100" math="0" shadow="0">
            <root>
                <mxCell id="0"/>
                <mxCell id="1" parent="0"/>
                <mxCell id="2" value="&lt;b&gt;Frameworks&lt;/b&gt;&lt;br&gt;- Angular&lt;br&gt;- React&lt;br&gt;- Vue&lt;br&gt;- Svelte&lt;br&gt;- Solid&lt;br&gt;- Qwik&lt;br&gt;- Lit (Web Components)&lt;br&gt;- Ember&lt;br&gt;- Knockout&lt;br&gt;- zie krausest frontent benchmarkj" style="text;html=1;strokeColor=none;fillColor=none;align=left;verticalAlign=top;whiteSpace=wrap;rounded=0;" vertex="1" parent="1">
                    <mxGeometry x="40" y="40" width="300" height="190" as="geometry"/>
                </mxCell>
                <mxCell id="3" value="&lt;b&gt;Server-side rendering&lt;/b&gt;&lt;br&gt;- Next.js (React)&lt;br&gt;- Nuxt.js (Vue)&lt;br&gt;- @angular/ssr (...)&lt;br&gt;- SolidStart&lt;br&gt;- QwikCity&lt;br&gt;- SvelteKit" style="text;html=1;strokeColor=none;fillColor=none;align=left;verticalAlign=top;whiteSpace=wrap;rounded=0;" vertex="1" parent="1">
                    <mxGeometry x="130" y="20" width="300" height="190" as="geometry"/>
                </mxCell>
                <mxCell id="4" value="&lt;b&gt;Static Site Generation&lt;/b&gt;&lt;br&gt;- Astro&lt;br&gt;- Next.js&lt;br&gt;- 11ty&lt;br&gt;- HUGO&lt;br&gt;- Docusaurus" style="text;html=1;strokeColor=none;fillColor=none;align=left;verticalAlign=top;whiteSpace=wrap;rounded=0;" vertex="1" parent="1">
                    <mxGeometry x="370" y="20" width="300" height="190" as="geometry"/>
                </mxCell>
                <mxCell id="5" value="&lt;b&gt;Testing&lt;/b&gt;&lt;br&gt;- Mocha (testrunner)&lt;br&gt;- Sinon (mocking)&lt;br&gt;- Jest (alles in 1)&lt;br&gt;- @testing-library (renderen)&lt;br&gt;- Karma (runner Angular)&lt;br&gt;- Jasmine (runner + framework)&lt;br&gt;- Vitest&lt;br&gt;- Stryker (mutation testing)" style="text;html=1;strokeColor=none;fillColor=none;align=left;verticalAlign=top;whiteSpace=wrap;rounded=0;" vertex="1" parent="1">
                    <mxGeometry x="270" y="150" width="300" height="190" as="geometry"/>
                </mxCell>
                <mxCell id="6" value="&lt;b&gt;Build tools&lt;/b&gt;&lt;br&gt;- Grunt (configureren)&lt;br&gt;- Gulp (programmeren)&lt;br&gt;&lt;br&gt;&lt;br&gt;&lt;b&gt;Module bundlers&lt;br&gt;&lt;/b&gt;- webpack (vervelend configureren)&lt;br&gt;- Rollup / Rolldown&lt;br&gt;- Parcel&lt;br&gt;- Vite&lt;br&gt;&lt;b&gt;&lt;br&gt;&lt;/b&gt;" style="text;html=1;strokeColor=none;fillColor=none;align=left;verticalAlign=top;whiteSpace=wrap;rounded=0;" vertex="1" parent="1">
                    <mxGeometry x="60" y="260" width="300" height="190" as="geometry"/>
                </mxCell>
                <mxCell id="7" value="&lt;b&gt;Libraries&lt;/b&gt;&lt;br&gt;- is-odd/is-even/is-even-ai&lt;br&gt;- axios (HTTP-verkeer)&lt;br&gt;- async&lt;br&gt;- jQuery ðŸ¤¢&lt;br&gt;- lodash / underscore&lt;br&gt;- blabla-query tanstack-query&lt;br&gt;- marked&lt;br&gt;- dayjs/date-fns/luxon&lt;br&gt;- TypeScript: type-fest" style="text;html=1;strokeColor=none;fillColor=none;align=left;verticalAlign=top;whiteSpace=wrap;rounded=0;" vertex="1" parent="1">
                    <mxGeometry x="490" y="100" width="300" height="190" as="geometry"/>
                </mxCell>
                <mxCell id="8" value="&lt;b&gt;Runtimes&lt;/b&gt;&lt;br&gt;- Node.js&lt;br&gt;- Deno&lt;br&gt;- bun" style="text;html=1;strokeColor=none;fillColor=none;align=left;verticalAlign=top;whiteSpace=wrap;rounded=0;" vertex="1" parent="1">
                    <mxGeometry x="290" y="340" width="90" height="100" as="geometry"/>
                </mxCell>
                <mxCell id="9" value="&lt;b&gt;Compilers/transpilers&lt;/b&gt;&lt;br&gt;- TypeScript&lt;br&gt;- Babel&lt;br&gt;- CoffeeScript&lt;br&gt;- Elm (functioneel)" style="text;html=1;strokeColor=none;fillColor=none;align=left;verticalAlign=top;whiteSpace=wrap;rounded=0;" vertex="1" parent="1">
                    <mxGeometry x="410" y="330" width="170" height="120" as="geometry"/>
                </mxCell>
            </root>
        </mxGraphModel>
    </diagram>
</mxfile>